<svg width="45" height="45" viewBox="0 0 45 45" fill="none" xmlns="http://www.w3.org/2000/svg">
<g id="Iconsax/Linear/people">
<path id="Vector" d="M31.8189 27.075C34.3877 27.5062 37.2189 27.0563 39.2064 25.725C41.8502 23.9625 41.8502 21.075 39.2064 19.3125C37.2002 17.9813 34.3314 17.5313 31.7627 17.9813M13.1252 27.075C10.5564 27.5062 7.7252 27.0563 5.7377 25.725C3.09395 23.9625 3.09395 21.075 5.7377 19.3125C7.74395 17.9813 10.6127 17.5313 13.1814 17.9813M33.7502 13.425C33.6322 13.4062 33.512 13.4062 33.3939 13.425C32.1426 13.3797 30.9579 12.8498 30.0902 11.9471C29.2225 11.0443 28.7397 9.83962 28.7439 8.5875C28.7439 5.90625 30.9002 3.75 33.5814 3.75C34.8644 3.75 36.0949 4.25966 37.0021 5.16687C37.9093 6.07408 38.4189 7.30452 38.4189 8.5875C38.4155 9.84052 37.9277 11.0437 37.0575 11.9453C36.1874 12.8469 35.0023 13.3771 33.7502 13.425ZM11.1939 13.425C11.3064 13.4062 11.4377 13.4062 11.5502 13.425C12.8015 13.3797 13.9862 12.8498 14.8539 11.9471C15.7217 11.0443 16.2044 9.83962 16.2002 8.5875C16.2002 5.90625 14.0439 3.75 11.3627 3.75C10.0797 3.75 8.84927 4.25966 7.94207 5.16687C7.03486 6.07408 6.5252 7.30452 6.5252 8.5875C6.54395 11.2125 8.60644 13.3312 11.1939 13.425ZM22.5002 27.4313C22.3822 27.4125 22.262 27.4125 22.1439 27.4313C20.8926 27.386 19.7079 26.856 18.8402 25.9533C17.9725 25.0506 17.4897 23.8459 17.4939 22.5938C17.4939 19.9125 19.6502 17.7563 22.3314 17.7563C23.6144 17.7563 24.8449 18.2659 25.7521 19.1731C26.6593 20.0803 27.1689 21.3108 27.1689 22.5938C27.1502 25.2188 25.0877 27.3563 22.5002 27.4313ZM17.0439 33.3375C14.4002 35.1 14.4002 37.9875 17.0439 39.75C20.0439 41.7563 24.9564 41.7563 27.9564 39.75C30.6002 37.9875 30.6002 35.1 27.9564 33.3375C24.9752 31.35 20.0439 31.35 17.0439 33.3375Z" stroke="black" stroke-width="1.5" stroke-linecap="round" stroke-linejoin="round"/>
</g>
</svg>
